
<svg version="1.1" xmlns="http://www.w3.org/2000/svg" xmlns:xlink="http://www.w3.org/1999/xlink" x="0px" y="0px"
	 viewBox="0 0 595.28 841.89" style="enable-background:new 0 0 595.28 841.89;" xml:space="preserve">
<style type="text/css">
	.st0{display:none;}
	.st1{fill:#F7AA1C;}
	.st2{fill:none;stroke:#000000;stroke-width:6;stroke-linecap:round;stroke-linejoin:round;stroke-miterlimit:10;}
	.st3{fill:#F3AA25;}
	.st4{fill:#D9AC2C;}
	.st5{fill:#FFFFFF;}
	.st6{fill:#EBCAB2;}
	.st7{fill:none;stroke:#4A126E;stroke-width:6;stroke-linecap:round;stroke-linejoin:round;stroke-miterlimit:10;}
	.st8{fill:#EACAB2;}
	.st9{fill:#4A126E;stroke:#4B136F;stroke-width:3;stroke-linecap:round;stroke-linejoin:round;stroke-miterlimit:10;}
	.st10{fill:#A06FB6;}
	.st11{fill:none;stroke:#4A126E;stroke-width:3;stroke-linecap:round;stroke-linejoin:round;stroke-miterlimit:10;}
	.st12{fill:#F92891;}
	.st13{fill:#3583BD;}
	.st14{fill:#B9DA50;}
	.st15{fill:#D43F16;}
	.st16{fill:#B883C0;}
	.st17{fill:#D672A1;}
	.st18{fill:#862196;}
	.st19{fill:none;stroke:#B5B5B5;stroke-width:5;stroke-linecap:round;stroke-linejoin:round;stroke-miterlimit:10;}
	.st20{fill:none;stroke:#BAB8B8;stroke-width:5;stroke-linecap:round;stroke-linejoin:round;stroke-miterlimit:10;}
	.st21{fill:none;stroke:#4A126E;stroke-width:5;stroke-linecap:round;stroke-linejoin:round;stroke-miterlimit:10;}
</style>
<g id="Calque_1" class="st0">
	
		<image style="display:inline;overflow:visible;opacity:0.1608;" width="1640" height="2360"  transform="matrix(0.3567 0 0 0.3567 5.1168 0)">
	</image>
</g>
<g id="Calque_18">
	<path class="st1" d="M417.19,245.15c2.47-4.44,7.36-7.43,12.44-7.62c5.08-0.19,10.17,2.44,12.96,6.69
		c7.18-11.04,18.39-19.38,31.02-23.09c12.63-3.71,26.58-2.75,38.58,2.65c6.66,3,12.94,7.57,16.18,14.11
		c3.27,6.6,3.06,14.47,1.19,21.6c-3.09,11.78-11.49,22.92-23.31,25.85c5.39-0.48,10.31,4.51,10.71,9.91
		c0.4,5.4-3.02,10.6-7.67,13.38s-10.3,3.42-15.7,2.96c-1.36,9.95-10.01,17.72-19.57,20.81s-19.9,2.34-29.86,1.06
		c-10.8-1.39-22.08-3.64-30.35-10.71c-8.13-6.96-12.13-17.63-13.99-28.17c-1.89-10.72-1.84-22.01,1.98-32.2
		C405.63,252.18,413.57,243.22,417.19,245.15z"/>
	<path class="st3" d="M173.28,439.92c-19.29,0.29-36.57,18.15-36.23,37.44c0.56-9.51-10.78-16.3-20.11-14.37s-16.33,9.62-21.6,17.55
		c-10.41,15.69-16.83,35.19-12.31,53.47c4.52,18.28,22.44,33.79,41.07,31.07c-11.05,3.67-24.31,10.34-23.82,21.97
		c0.42,9.84,11.06,16.06,20.79,17.57c22.59,3.51,46.74-9.64,56.04-30.52c21.76,15.07,53.1,14.61,74.41-1.09s31.03-45.5,23.08-70.75
		c-7.95-25.25-32.99-44.1-59.45-44.76c0.9-9.77-5.48-19.75-14.73-23.04C191.17,431.18,179.92,434.9,173.28,439.92z"/>
</g>
<g id="Calque_38">
	<path class="st5" d="M290.77,593.16c0.29-0.35,0.58-0.71,0.87-1.06c-5.35-6.54-10.97-12.86-16.86-18.92"/>
	<path class="st5" d="M151.41,516.19c0.88,7.12-1.44,14.58-6.19,19.96c3.89,3.54,6.78,8.17,8.24,13.23
		c1.11-8.07,2.93-16.04,5.43-23.8c-2-1.09-4.04-2.2-5.6-3.85C151.73,520.08,150.69,517.76,151.41,516.19z"/>
</g>
<g id="Calque_21">
	<path class="st6" d="M125.96,382.58c-3.34-10.8-5.92-21.97-5.68-33.27c0.24-11.3,3.5-22.8,10.76-31.47
		c7.26-8.66,18.84-14.04,30-12.27c13.73,2.18,24.61,15.93,23.48,29.79c-0.57,6.99-3.74,13.45-6.78,19.77S171.67,368,171.41,375
		c-0.26,7,2.95,14.61,9.36,17.44c-5.65,11.67-21.18,16.57-33.33,12.06S127.52,387.63,125.96,382.58z"/>
</g>
<g id="Calque_33">
	<path class="st7" d="M182.12,341.71c5.87-9.24,3.24-22.5-4.93-29.8c-8.17-7.29-20.67-8.7-30.85-4.68
		c-10.18,4.02-18.02,12.88-22.21,23c-4.19,10.12-4.97,21.4-3.8,32.29c1.09,10.13,3.93,20.28,9.8,28.6
		c5.87,8.33,15.05,14.66,25.2,15.53c10.15,0.87,20.97-4.46,25.13-13.76"/>
	<path class="st7" d="M144.74,359.99c-1.46-6.54-0.72-13.8,3.15-19.27c3.88-5.47,11.21-8.65,17.6-6.6
		c6.39,2.04,10.58,9.91,7.78,16.01c-0.2-5.88-2.73-11.65-6.93-15.78c-9.9,14.24-12.39,33.34-6.47,49.63"/>
</g>
<g id="Calque_23">
	<path class="st8" d="M359.31,267.41c4.6-17.33,2.48-36.36-5.84-52.26c-1.28-2.45-2.84-4.96-5.31-6.2
		c-4.42-2.21-9.59,0.41-13.99,2.65c-21.3,10.84-45.68,13.33-69.05,18.33c-23.37,5.01-47.63,13.7-61.97,32.81
		c-9.12,12.15-13.25,27.28-16.25,42.17c-3.45,17.15-5.62,35.2-0.48,51.93c6.44,20.94,23.81,37.17,43.48,46.81
		s41.62,13.49,63.32,16.45c-7.68,9.24-4.66,24.87,5.35,31.52s24.66,4.1,32.76-4.78c8.09-8.88,9.56-22.77,4.66-33.75
		c10.91-2.57,21.95-5.2,31.87-10.41c9.92-5.21,18.76-13.39,22.4-23.99c3.21-9.37,2.11-19.61,0.79-29.43
		c-4.81-35.72-11.96-71.12-21.41-105.9c-1.89-6.95-3.91-13.98-7.64-20.14s-9.44-11.45-16.44-13.16"/>
</g>
<g id="Calque_37">
	<path class="st9" d="M326.27,424.55c3.15-0.72,6.29-1.43,9.44-2.15"/>
	<path class="st9" d="M327.63,430.84c2.41-0.64,4.81-1.29,7.22-1.93"/>
	<path class="st9" d="M329.34,438.04c2.58-0.92,5.16-1.84,7.74-2.76"/>
</g>
<g id="Calque_7">
	<g id="Calque_26">
		<path class="st10" d="M386.5,437.08c-9.43-8.5-30.35-8.03-41.18-1.4c-6.95,4.25-11.81,11.11-17.77,16.67
			c-5.95,5.55-14.21,5.24-22.01,2.9c-11.25-3.36-15.1-13.72-25.91-18.31c-6.39-2.72-13.98-1.01-19.83,2.73s-10.3,9.26-14.57,14.73
			c-27.97,35.81-53.62,74.83-64.41,118.97c-1.02,4.19-1.91,8.53-1.26,12.79c0.65,4.26,3.16,8.49,7.17,10.06
			c4.02,1.58,9.4-0.45,10.46-4.64c13.24,11.29,34.27,12.16,48.39,2c5.45,6.93,15.77,7.72,24.37,5.8s16.77-5.95,25.56-6.57
			c17.6-1.25,33.63,11.21,51.27,11.73c20.26,0.6,39.48-14.61,59.32-10.41c1.7,4.74,9.21,7.41,13.21,4.36
			c7.52-5.75,15.57-1.75,28.4,0.34c5.1,0.83,9.98-6.69,15.12-7.11c0.98,2.08,5.88,5.69,6.17,2.69c3.4-2.13,3.56-10.7,0.89-13.69
			c-2.67-2.99-6.55-4.62-9.46-7.38c-5.78-5.48-6.71-14.16-7.87-22.04C445.63,504.15,418.04,465.51,386.5,437.08z"/>
	</g>
	<path class="st7" d="M289.65,443.87c-3.97-6.78-13.28-8.9-20.84-6.74s-13.67,7.66-19.12,13.33c-24.1,25.1-40.44,56.47-56.44,87.37
		c-8.21,15.85-16.66,32.99-14.29,50.68c0.58,4.34,3.04,9.55,7.41,9.34c2.84-0.14,4.99-2.62,7.68-3.55c4.25-1.47,8.68,1.12,12.8,2.91
		c11.62,5.07,25.78,3.82,36.34-3.21"/>
	<path class="st7" d="M274.71,484.51c-9.25,34.52-18.51,69.04-27.76,103.56c-0.62,2.33-1.24,4.83-0.44,7.1
		c1.5,4.25,6.99,5.4,11.49,5.11c12.47-0.8,24.08-7.32,36.57-7.85c12.02-0.51,23.47,4.55,34.85,8.44c11.38,3.9,24.21,6.63,35.18,1.68
		c6.84-3.08,12.92-9.09,20.42-8.74c3.45,0.16,6.68,1.71,10.07,2.35c3.39,0.64,7.48,0.06,9.3-2.87"/>
	<path class="st7" d="M376.9,478.8c9.75,38.42,19.51,76.84,29.26,115.26c0.83,3.29,2.24,7.16,5.56,7.87
		c5.11,1.09,8.01-6.13,12.96-7.81c6.8-2.32,13.09,6.67,20.2,5.66c4.23-0.6,7.08-4.49,10.62-6.87c3.55-2.38,9.92-2.07,10.45,2.17
		c3.56,0.6,6.53-3.51,6.06-7.09s-3.2-6.43-6.04-8.67c-2.84-2.24-6-4.22-8-7.23c-2.32-3.49-2.75-7.86-3.26-12.02
		c-6.4-51.99-35.3-101.28-80.03-128.55"/>
</g>
<g id="Calque_36">
	<path class="st11" d="M186.47,552.09c0.83,14.76,1.66,29.52,2.49,44.28"/>
	<path class="st11" d="M193.37,539.12c1.43,18.05,2.87,36.1,4.3,54.15"/>
	<path class="st11" d="M201.19,526.59c2.06,23.3,4.12,46.59,6.18,69.89"/>
	<path class="st11" d="M209.37,512.04c2.95,28.66,5.9,57.32,8.85,85.98"/>
	<path class="st11" d="M217.75,492.36c3.52,35.47,7.04,70.93,10.57,106.4"/>
	<path class="st11" d="M226.68,479.23c5.54,37.91,11.07,75.83,16.61,113.74"/>
	<path class="st11" d="M233.5,468.35c8.15,43.34,16.29,86.68,24.44,130.01"/>
	<path class="st11" d="M241.11,460.59c10.46,44.54,20.93,89.07,31.39,133.61"/>
	<path class="st11" d="M249.84,463.3c12.27,42.38,24.53,84.75,36.8,127.13"/>
	<path class="st11" d="M259.17,458.67c12.53,44.44,25.69,88.7,39.49,132.76"/>
	<path class="st11" d="M268.77,450.62c12,47.98,25.97,95.47,41.86,142.3"/>
	<path class="st11" d="M276.59,442.89c16.72,52.26,33.44,104.52,50.16,156.79"/>
	<path class="st11" d="M284.93,443.25c19.88,52.83,38.26,106.23,55.12,160.1"/>
	<path class="st11" d="M297.76,450.57c18.13,50.8,36.27,101.6,54.4,152.41"/>
	<path class="st11" d="M309.99,456.33c17.92,48.22,35.83,96.45,53.75,144.67"/>
	<path class="st11" d="M321.98,453.32c18.79,46.65,37.58,93.3,56.38,139.95"/>
	<path class="st11" d="M331.36,449.55c21.74,49.36,43.74,98.61,66.01,147.73c-0.09-1.04-0.18-2.09-0.27-3.13"/>
	<path class="st11" d="M337.72,440.34c20.74,44.06,41.48,88.12,62.22,132.19"/>
	<path class="st11" d="M344.42,435.66c26.02,52.53,52.04,105.07,78.07,157.6"/>
	<path class="st11" d="M397.09,560.53c6.27,13.44,12.54,26.87,18.8,40.31"/>
	<path class="st11" d="M354.83,431.97C381.74,488,409.78,543.5,438.92,598.4"/>
	<path class="st11" d="M364.39,429.77c29.11,54.54,58.23,109.08,87.34,163.62"/>
	<path class="st11" d="M375.87,435.22c30.84,50.81,59.26,103.09,85.16,156.59"/>
	<path class="st11" d="M392.02,446.17c19.94,34.2,40.47,68.04,61.61,101.52"/>
	<path class="st11" d="M406.71,457.89c10.29,20.19,22.25,39.53,35.72,57.76"/>
</g>
<g id="Calque_27">
	<path class="st5" d="M336.57,316.51c-0.07-17.4,7.83-34.67,21.03-46c-1.12,14.35-2.8,28.65-5.03,42.86c-0.22,1.4-0.49,2.9-1.5,3.91
		c-1.4,1.4-3.66,1.31-5.63,1.09C342.23,318.03,339.01,317.61,336.57,316.51z"/>
	<path class="st5" d="M289.29,328.86c-5.28-13.07-10.78-26.5-20.59-36.62c-3.38-3.48-7.42-6.61-12.18-7.55
		c-4.61-0.91-9.44,0.36-13.52,2.68c-4.08,2.31-7.52,5.61-10.75,9.01c-10.69,11.25-19.66,24-28.26,36.91
		c-1.3,1.95-2.63,4.03-2.72,6.37c-0.09,2.34,1.6,4.91,4.49,4.58c27.67-4.52,55.35-9.05,83.02-13.57c0.75-0.12,1.54-0.27,2.09-0.79
		c0.55-0.52,0.68-1.55,0.06-1.98C290.28,327.48,289.27,328.43,289.29,328.86z"/>
</g>
<g id="Calque_8">
	<path class="st7" d="M358.25,269.09c-7.95,5.09-13.48,13.32-16.96,22.1c-3.48,8.78-5.08,18.16-5.2,26.99
		c9.63,3.97,21.9-0.23,27.08-9.27c2.5-4.36,3.41-9.48,3.4-14.5C366.57,285.41,363.68,276.44,358.25,269.09z"/>
</g>
<g id="Couleur_cheveux">
	<path class="st12" d="M344.79,203.8c-7.31,11.49-21.07,17.31-34.51,19.52c-13.44,2.21-27.21,1.49-40.7,3.37
		c-26.28,3.65-51.11,17.59-67.35,38.57c-16.24,20.98-23.52,48.82-18.95,74.95c4.57,26.13,21.12,50.06,44.31,62.96
		c19.14,10.65,41.47,13.65,63.2,16.45c-0.84,6.7-1.69,13.41-2.53,20.11c-7.43-1.1-14.51,3.41-20.15,8.37s-10.98,10.75-18.11,13.14
		c-7.12,2.39-16.73-0.41-18.47-7.73c-6.54,5.75-13.42,11.67-21.85,13.85c-8.43,2.18-18.86-0.7-22.4-8.66
		c-3.05,2.16-6.22,4.37-9.89,5.09c-3.66,0.73-7.98-0.44-9.81-3.7c-2.44-4.36,0.49-9.6,2.7-14.07c8.15-16.46,6.67-36.06,2.42-53.92
		c-4.25-17.87-11.09-35.19-13.22-53.43c-2.13-18.24-2.02-39.36,11.31-51.99c-4.74-2.69-9.33-3.45-14.07-6.15
		c9.18,2.02,19.26-9.91,24.77-17.52c5.51-7.61,10.94-15.45,15.49-23.68c15.25-27.54,50.28-38.75,82.18-29.59
		c7.19-11.41,18.92-20.39,32.29-22.18C324.82,185.78,339.47,192.24,344.79,203.8z"/>
	<path class="st12" d="M352.74,205.99c9.5,16.89,9.82,37.43,7.43,56.66s-7.23,38.26-7.16,57.64c0.08,19.38,6,39.98,21.13,52.09
		c6.61,5.29,15.63,10.4,15.41,18.86c-0.19,7.42-7.59,12.27-11.55,18.55c-5.17,8.2-3.87,19.87,2.92,26.8
		c6.78,6.92,19.65,11.08,28.05,6.25c3.63-2.09,5.83-7.94,10-7.53c2.6,0.25,4.81,1.91,6.99,3.34c12.2,8.03,27.89,10.53,41.98,6.69
		c8.12-2.22,16.36-7.3,18.5-15.44c1.56-5.94-0.44-12.14-1.46-18.2c-2.96-17.51,2.3-35.21,4.51-52.83
		c2.2-17.62,0.31-37.8-13.18-49.34c-6.65-5.69-16.38-10.02-17.21-18.73c-0.34-3.54,0.98-7.3-0.39-10.58
		c-1.96-4.67-8.92-5.59-12.9-2.46c-3.98,3.12-5.15,8.84-4.21,13.81c0.49-14.79-6.34-29.65-17.89-38.92c-3.51-2.82-7.51-5.23-10-8.99
		s-2.8-9.5,0.78-12.25c-5.78-0.08-11.53,2.75-15.01,7.37c-8.93-19.66-28.8-33.89-50.28-36.03
		C351.1,205.44,353.03,208.11,352.74,205.99z"/>
	<path class="st12" d="M272.81,206.82c-3.89-7.63-5.59-16.35-4.85-24.88c0.34-3.98,1.31-8.12,4.01-11.08s7.53-4.23,10.81-1.94
		c3.23,2.26,3.74,6.8,3.61,10.74c-0.18,5.36-1,10.77-3.2,15.66C280.98,200.22,277.32,204.58,272.81,206.82z"/>
	<path class="st12" d="M336.5,414.92c2.17,7.7,2.85,15.82,1.99,23.77c4.64-5.12,11.82-7.15,18.7-7.76
		c6.89-0.61,13.86-0.04,20.7-1.07c-3.2-8.31-1.21-18.37,4.91-24.84c1.88-1.99,4.1-3.64,5.92-5.69c1.82-2.04,3.27-4.63,3.14-7.36
		c-0.1-2.03-1.52-4.24-3.55-4.19c-1.2,0.03-2.23,0.84-3.16,1.6C370.76,401.03,353.85,409.51,336.5,414.92z"/>
</g>
<g id="Calque_6">
	<path class="st7" d="M290.56,423.13c-0.94,4.82-1.89,9.69-1.69,14.59c0.2,4.9,1.65,9.92,4.95,13.55
		c4.35,4.77,11.26,6.44,17.71,6.25c5.38-0.16,10.81-1.47,15.35-4.36c4.54-2.89,8.13-7.45,9.26-12.71c0.82-3.81,0.36-7.77-0.11-11.64
		c-0.51-4.22-1.02-8.44-1.53-12.66C320.12,419.12,305.48,420.85,290.56,423.13z"/>
</g>
<g id="Couleur_mèche_2">
	<path class="st13" d="M422.11,321.65c-8.81,12.9-15.05,21.65-18.79,36.82c-1.2,4.88-2.12,9.92-1.52,14.9
		c0.61,4.98,2.95,9.96,7.12,12.75c3.31,2.21,7.44,2.9,10.79,5.05c4.22,2.72,6.8,7.8,6.49,12.82s-3.49,9.75-8.01,11.92
		c6.46,0.6,12.97-3.03,16.43-8.52s4.02-12.55,2.11-18.76c-3.13-10.2-12.21-17.9-14.68-28.28c-1.75-7.36,0.07-15.02,1.44-22.46
		C424.87,330.46,425.48,328.14,422.11,321.65z"/>
</g>
<g id="Couleur_yeux">
	<path class="st14" d="M248.9,288.25c0.76-0.73,1.51-1.46,2.27-2.18c-5.97,1.05-9.39,7.21-11.97,12.7
		c-2.55,5.43-5.14,11.67-2.86,17.22c2.27,5.54,8.53,8.19,14.32,9.73c2.98,0.79,6.06,1.45,9.12,1.13c3.06-0.32,6.14-1.77,7.78-4.38
		c0.82,3.39,3.94,6.09,7.41,6.4c3.47,0.31,7.03-1.78,8.44-4.96c-0.69,0.68-0.06,2.02,0.9,2.16s1.86-0.64,2.19-1.55
		c0.33-0.91,0.2-1.92,0.04-2.87c-1.35-7.74-5.39-14.74-9.87-21.19c-3.44-4.94-7.31-9.79-12.54-12.78
		C258.9,284.67,252.04,283.89,248.9,288.25z"/>
</g>
<g id="Calque_29">
	<path class="st15" d="M281.96,343.98c-0.16-1.79-1.63-3.25-3.3-3.92c-1.67-0.67-3.51-0.71-5.31-0.72
		c-17.18-0.13-35.33,1.35-49.47,11.11c-1.07,0.74-2.14,1.55-2.8,2.67s-0.83,2.62-0.09,3.69c0.96,1.38,2.92,1.52,4.6,1.49
		C245.17,357.91,264.65,353.16,281.96,343.98z"/>
	<path class="st15" d="M351.17,326.83c-2.67,1.08-5.03,2.9-6.75,5.2c-0.6,0.8-1.14,1.72-1.14,2.72c0,1.4,1.08,2.61,2.35,3.19
		c1.27,0.58,2.7,0.66,4.1,0.72c0.88,0.04,1.77,0.08,2.61-0.16c0.84-0.24,1.64-0.82,1.91-1.65c0.23-0.72,0.05-1.49-0.16-2.21
		C353.29,331.91,352.09,329.31,351.17,326.83z"/>
</g>
<g id="Calque_30">
	<path class="st16" d="M314.77,376.37c-12.59-6.03-28.01,1.11-41.37-2.94c-4.23-1.28-8.22-3.68-12.63-3.81
		c-6.79-0.21-12.74,5.21-15.3,11.51c-0.49,1.21-0.85,2.73,0,3.73c0.69,0.82,1.95,0.93,2.96,0.59s1.85-1.05,2.72-1.68
		c5.84-4.27,13.79-5.49,20.65-3.16s12.42,8.13,14.46,15.08c0.83,2.83,1.26,6.07,3.56,7.92c2.3,1.84,5.58,1.56,8.5,1.16
		c5.48-0.75,11.07-1.65,15.92-4.31c4.85-2.66,8.88-7.46,9.12-12.98C323.59,381.95,318.95,376.24,314.77,376.37z"/>
</g>
<g id="Calque_31">
	<path class="st17" d="M289.59,403.56c-0.55-8.8-5.95-17.14-13.75-21.26c-7.8-4.12-17.73-3.86-25.31,0.65
		c-1.35,0.8-2.72,1.86-3.11,3.38c-0.35,1.36,0.16,2.79,0.68,4.09c1.45,3.67,3.11,7.42,6.07,10.02c3.86,3.39,9.28,4.28,14.4,4.69
		C275.53,405.69,282.55,405.63,289.59,403.56z"/>
</g>
<g id="Calque_2">
	<path class="st7" d="M345.65,202.02c22.85,1.55,44.42,15.86,54.73,36.31c3.16-5.46,10.09-8.42,16.22-6.93
		c-4.44,2.36-4.58,9.05-1.84,13.26c2.74,4.21,7.33,6.76,11.31,9.83c10.84,8.36,17.69,21.69,18.17,35.37
		c-3.13-3.74-2.23-10.13,1.81-12.86c4.05-2.73,10.31-1.17,12.61,3.14s0.09,10.38-4.43,12.21c21.2,7.98,36.45,29.71,36.75,52.36
		c0.31,22.86-13.06,45.71-6.59,67.64c1.79,6.06,5.08,12.24,3.44,18.34c-2.14,7.95-11.3,11.38-19.25,13.47
		c-8.65,2.27-17.56,4.38-26.45,3.43s-17.89-5.53-21.84-13.55c-8.2,10.43-23.88,15.03-35.59,8.79c-11.71-6.25-16.19-23.85-7.46-33.84
		c4.36-4.99,11.52-8.44,12.36-15c1.02-8.02-7.88-13.12-14.39-17.91c-12.74-9.39-19.73-25.02-21.9-40.7s-0.06-31.6,2.32-47.25
		c2.37-15.65,5.01-31.43,3.88-47.21s-6.45-31.86-17.84-42.85s-29.6-15.63-43.67-8.4c-12.66,6.51-19.54,20.83-21.34,36.18
		C302.52,223.87,328.39,221.89,345.65,202.02z"/>
	<path class="st7" d="M279.48,207.53c-2.15,0.17-4.3,0.35-6.45,0.52c5.89-6.69,10.29-14.69,12.77-23.25c1-3.46,1.7-7.15,0.84-10.66
		c-0.86-3.5-3.62-6.74-7.2-7.17c-5.52-0.65-9.58,5.18-11.04,10.54c-2.88,10.51-0.93,22.25,5.19,31.27
		c-16.79-7.79-37.31-3.47-52.65,6.88c-15.35,10.34-26.37,25.88-35.97,41.71c-3.23,5.32-6.41,10.81-11.07,14.93
		c-4.66,4.12-11.18,6.71-17.17,5.05c1.07,6.21,7.94,10.76,14.07,9.33c-4.03,5.42-8.05,10.85-10.55,16.81
		c-6.14,23.5,1.32,48.12,7.84,71.52c6.52,23.39,12.02,49.06,2.39,71.36c-2.32,5.36-5.32,12.05-1.5,16.47
		c2.2,2.55,6.07,3.14,9.32,2.25c3.25-0.89,6.01-3.01,8.58-5.2c3.35,8.75,14.79,11.98,23.78,9.35c8.99-2.62,16.04-9.45,22.7-16.04
		c1.91,7.93,12.37,10.96,20.07,8.26c7.7-2.7,13.34-9.15,19.19-14.84c3.8-3.7,9.2-7.41,13.99-5.13c2.25,1.07,3.72,3.24,5.4,5.09
		c7.54,8.33,21.19,10.29,30.77,4.41c6.66-4.08,11.04-11.15,17.61-15.38c9.08-5.85,20.7-5.39,31.49-4.71"/>
	<path class="st7" d="M277.13,225.92c-26.66,6.47-54.96,14.66-72.5,35.77c-12.47,15.01-17.78,34.81-19.36,54.26
		c-1.37,16.94-0.07,34.47,6.92,49.95c8.82,19.55,26.26,34.45,45.97,42.91c19.71,8.46,41.58,10.92,63.02,10.15
		c30.82-1.1,62.68-9.42,85.32-30.36"/>
</g>
<g id="Couleur_mèche_1">
	<path class="st13" d="M183.19,341.38c-7.89,12.49-10.39,28.26-6.75,42.58c1.41,5.56,3.94,11.19,8.68,14.41
		c3.26,2.22,7.23,3.08,10.91,4.48c4.9,1.87,9.39,4.77,13.11,8.47c2.24,2.22,4.25,4.85,4.9,7.93c0.66,3.08-0.35,6.69-3.04,8.33
		c6.91-2.24,13.14-7.14,15.96-13.84c2.82-6.69,1.74-15.13-3.42-20.23c-4.46-4.41-10.99-5.81-16.7-8.4
		c-8.08-3.67-14.89-10.07-19.05-17.91S182.15,350.14,183.19,341.38z"/>
</g>
<g id="Calque_32">
	<path class="st8" d="M469.84,295.27c-6.77,0.02-13.61,0.24-20.16,1.92c-6.56,1.68-12.88,4.95-17.19,10.17
		c-5.28,6.42-6.98,14.97-8.51,23.14c-1.26,6.73-2.52,13.62-1.52,20.39c1.41,9.57,1.71,15.76,12.74,25.78
		c2.83-4.09,6.44-7.89,11.11-9.6c4.67-1.71,10.55-0.82,13.59,3.11c2.97,3.85,2.48,9.53,0.1,13.78s-6.28,7.39-10.09,10.42
		c7.58,3.87,16.94,3.39,24.67-0.16c7.74-3.55,13.94-9.9,18.47-17.1c7.08-11.27,10.34-24.89,9.11-38.15
		c-1.23-13.25-6.93-26.05-15.96-35.83C481.19,297.72,473.83,292.94,469.84,295.27z"/>
</g>
<g id="Calque_20">
	<path class="st18" d="M311.61,209.55c-0.82,6.56-1.54,13.26-0.28,19.75c1.27,6.49,4.82,12.85,10.66,15.95
		c7.27,3.86,16.28,1.93,23.77-1.48c3.86-1.76,7.75-4.06,9.82-7.76c3.37-6.01,0.98-13.49-1.46-19.93c-1.74-4.58-3.73-9.49-7.89-12.08
		c-2.92-1.82-6.5-2.22-9.94-2.17C327.41,201.94,318.58,204.78,311.61,209.55z"/>
	<path class="st18" d="M265.94,208.6c2.45,5.58,4.7,11.32,5.63,17.35s0.5,12.4-2.2,17.87c-4.5,9.09-14.33,14.18-23.87,17.6
		c-13.35,4.79-27.42,7.55-41.58,8.16c-3.99,0.17-8.75-0.23-10.77-3.69c-2.39-4.09,0.86-9.1,4.08-12.58
		C216.33,232.72,240.72,217.06,265.94,208.6z"/>
</g>
<g id="Calque_3">
	<path class="st7" d="M184.81,334.67c-4.79,15.92,1.55,34.56,15.04,44.27c8.07,5.81,18.58,8.92,24.03,17.24
		c3.83,5.86,4.32,13.7,1.4,20.06c-2.92,6.36-9.09,11.08-15.96,12.39c4.16-2.82,4.73-9.11,2.38-13.55c-2.35-4.44-6.85-7.32-11.4-9.44
		c-4.56-2.12-9.4-3.7-13.55-6.54c-9.42-6.43-13.75-18.6-13.08-29.98C174.35,357.75,179.35,347.05,184.81,334.67z"/>
	<path class="st7" d="M423.42,319.69c-10.41,15.51-21.15,32.02-21.3,50.17c-0.06,6.8,2.08,14.48,8.67,17.76
		c3.99,1.98,9.13,2.08,12.39,4.95c3.59,3.16,3.4,8.66,0.93,12.61c-2.47,3.94-6.68,6.69-10.77,9.32c9.8-1.4,20.57-5.07,24.24-13.41
		c3.47-7.87-0.79-16.73-5.79-23.89c-5-7.16-11.06-14.39-11.46-22.86c-0.29-6.01,2.35-11.77,3.68-17.66
		C425.35,330.78,425.01,323.85,423.42,319.69z"/>
</g>
<g id="Calque_35">
	<path class="st7" d="M182.42,345.36c-5.33,10.64-4.41,24.15,2.33,33.96"/>
	<path class="st7" d="M214.58,404.97c2.96,2.4,4.81,6.11,4.95,9.92c0.14,3.8-1.43,7.64-4.2,10.25"/>
	<path class="st7" d="M420.9,327.04c-0.09,6.54-3.67,12.44-6.74,18.21s-5.8,12.4-4.06,18.7"/>
	<path class="st7" d="M426.23,384.34c2.15,2.9,4.32,5.85,5.61,9.21s1.61,7.27,0.05,10.52c-1.56,3.25-5.32,5.56-8.83,4.72"/>
</g>
<g id="Calque_4">
	<path class="st7" d="M424.72,318.43c5.96-9.84,14.82-18.18,25.64-22.09c10.82-3.9,23.63-2.92,32.92,3.86
		c8.75,6.37,13.52,16.91,16.1,27.42c3.05,12.42,3.51,25.69-0.3,37.89c-3.81,12.21-12.2,23.24-23.72,28.78
		c-11.52,5.55-26.16,4.95-36.37-2.75"/>
	<path class="st7" d="M444.62,333.59c-0.4-6.87,3.45-13.81,9.5-17.1c6.04-3.29,13.97-2.77,19.52,1.3s8.46,11.45,7.15,18.21
		c-0.69-9.74-8.7-18.48-18.35-20.02c5.62,6.01,8.97,14.1,9.26,22.32c0.29,8.23-2.5,16.52-7.68,22.91"/>
	<path class="st7" d="M462.19,376.64c0.23-4.35-2.87-8.54-6.96-10.02s-8.9-0.42-12.29,2.31c-3.4,2.73-5.43,6.95-5.95,11.27
		c-0.41,3.38,0.15,7.06,2.38,9.64c3.32,3.85,9.6,4.07,13.95,1.45C457.67,388.67,461.8,384.1,462.19,376.64z"/>
</g>
<g id="Calque_5">
	<path class="st7" d="M359.83,225.92c-4.19,8.19-16.12,21.24-25.3,21.62c-9.19,0.38-18.41-4.49-23.27-12.3s-5.16-18.24-0.27-25.77
		c10.73-6.1,23.44-8.65,35.7-7.14"/>
	<path class="st7" d="M264.36,208.52c10.09,9.91,9,27.53,0.52,38.85c-8.48,11.32-22.43,17.26-36.26,20.2
		c-9.34,1.99-18.92,2.83-28.46,2.52c-2.23-0.07-4.62-0.27-6.35-1.68c-3.98-3.24-1.54-9.68,1.53-13.79
		C212.33,231.91,239.63,219.79,264.36,208.52z"/>
	<g id="Calque_34">
		<path class="st11" d="M202.06,248.76c0.39,7.1,0.78,14.2,1.17,21.29"/>
		<path class="st11" d="M209.38,240.81c0.93,9.48,1.86,18.97,2.79,28.45c0.35,0.05,0.43-0.62,0.08-0.65"/>
		<path class="st11" d="M219.09,233.8c0.53,11.71,1.65,23.39,3.36,34.99"/>
		<path class="st11" d="M229.45,227.06c0.86,13.25,2.29,26.47,4.27,39.6"/>
		<path class="st11" d="M239.03,220.28c1.92,13.74,3.85,27.49,5.77,41.23"/>
		<path class="st11" d="M250.48,214.44c1.83,13.91,3.66,27.82,5.48,41.73"/>
		<path class="st11" d="M259.95,211.01c2.51,11.77,4.11,23.74,4.77,35.76"/>
		<path class="st11" d="M315.06,208.69c1.31,11.27,2.62,22.54,3.93,33.81"/>
		<path class="st11" d="M325.04,205.06c0.91,13.52,1.82,27.03,2.73,40.55"/>
		<path class="st11" d="M333.52,202.95c1.67,14.33,3.34,28.67,5.01,43"/>
		<path class="st11" d="M342.52,202.42c1.97,12.79,3.95,25.58,5.92,38.37c0.07-0.42,0.13-0.84,0.2-1.26"/>
		<path class="st11" d="M349.98,203.39c1.19,10.38,2.47,20.76,3.84,31.12c0.18,0.26,0.36,0.53,0.54,0.79"/>
	</g>
</g>
<g id="Calque_9">
	<path class="st7" d="M289.92,330.02c-3.23-10.72-8.19-20.92-14.63-30.08c-5.27-7.49-12.64-14.82-21.8-14.96
		c-8.1-0.12-15.09,5.43-20.92,11.06c-11.46,11.08-21.48,23.65-29.71,37.3c-1.31,2.17-2.61,4.68-1.92,7.11
		c0.76,2.65,3.74,4.15,6.49,4.11c2.75-0.04,5.34-1.26,7.82-2.46"/>
</g>
<g id="Calque_10">
	<path class="st7" d="M245.16,286.81c-5.95,4.98-8.88,14.1-8.73,21.85c0.15,7.75,4.67,15.45,11.71,18.7
		c7.04,3.25,16.28,1.42,21.03-4.71c0.32,3.32,2.55,6.63,5.82,7.29c3.27,0.65,6.99-2.39,6.27-5.64c1.12,1.63,3.66,2.03,5.23,0.82"/>
</g>
<g id="Calque_11">
	<path class="st7" d="M304.18,275.22c-6.53,18.63-4.01,40.2,6.63,56.82c0.42-2.55,0.94-5.28,2.8-7.08s5.54-1.83,6.58,0.53
		c0.68,1.55-0.02,3.33-0.72,4.87c-2.55,5.65-5.1,11.3-7.65,16.95"/>
</g>
<g id="Calque_17">
	<path class="st7" d="M280.54,341.14c-19.13-2.78-39.09,0.43-56.39,9.06c-1.19,0.59-2.41,1.25-3.18,2.34
		c-0.76,1.09-0.9,2.74,0.06,3.67c0.78,0.76,1.99,0.81,3.08,0.81c20.92-0.08,41.82-4.58,60.92-13.13
		C284.25,343.04,283.62,341.58,280.54,341.14z"/>
	<path class="st7" d="M351.42,327.18c-3,0.56-5.79,2.22-7.7,4.6c-0.53,0.65-1,1.37-1.22,2.18c-0.23,0.81-0.19,1.72,0.24,2.44
		c0.53,0.88,1.54,1.33,2.51,1.65c2.16,0.71,4.45,1.04,6.73,0.95"/>
</g>
<g id="Calque_13">
	<path class="st7" d="M375.43,312.17c-1.61-36.82-10.01-73.34-23.18-108.29c24.81,27.62,41.53,62.41,47.62,99.03"/>
	<path class="st7" d="M353.46,203.31c10.37,15.95,26.01,27.61,38.95,41.56c12.94,13.95,23.69,32.35,20.49,51.1"/>
	<path class="st7" d="M387.44,412.96c-3.65,3.95-4.79,10.05-2.8,15.05c1.99,5,6.99,8.66,12.36,9.03s10.83-2.56,13.49-7.25"/>
	<path class="st7" d="M195.95,449.02c-0.9,4.86,2.11,10.14,6.74,11.85c4.63,1.71,10.35-0.36,12.82-4.64"/>
</g>
<g id="Calque_39">
	<path class="st11" d="M283.27,206.56c0.14,5.71,0.28,11.42,0.42,17.13c6.79-7.54,1.87-21.67,9.72-28.09
		c-1.77,9.63-3.42,20.09,1.06,28.79c2.57-13.26,5.29-26.91,12.76-38.16c-1.96,11.01-3.93,22.02-5.89,33.03
		c-0.15,0.86-0.21,1.94,0.54,2.39c0.93,0.55,2-0.46,2.55-1.39c3.13-5.25,4.28-11.39,6.03-17.25c1.75-5.85,4.39-11.85,9.44-15.28
		c-0.7,3.89-1.4,7.77-2.1,11.66c-0.1,0.57-0.2,1.16-0.04,1.72c0.52,1.74,3.26,1.69,4.46,0.31c1.19-1.37,1.32-3.33,1.61-5.13
		c0.29-1.79,0.98-3.79,2.67-4.47c1.86-0.75,4.1,0.68,4.65,2.6s-0.28,4.04-1.64,5.51c3.34,0.58,6.93-1.86,7.6-5.19"/>
</g>
<g id="Calque_40">
	<path class="st11" d="M160.81,279.48c1.44,2.1,3.95,3.42,6.49,3.4c2.54-0.01,5.04-1.36,6.45-3.47"/>
	<path class="st11" d="M274.5,204.74c-0.7-4.11-0.28-8.41,1.2-12.32"/>
	<path class="st11" d="M269.63,208.7c-1.1-6.5-5.21-12.68-11.43-17.18c-1.93-1.39-4.14-2.66-6.72-3.13s-5.59,0.02-7.22,1.63
		c-1.63,1.61-1.21,4.35,1.16,5.26c2.27,0.88,5.08-0.18,6.73-1.67c2.48-2.25,3.27-5.52,2.03-8.3c-1.24-2.79-4.49-4.99-8.24-5.6"/>
	<path class="st11" d="M400.73,235.89c0.26-3.45,0.56-7.04,2.3-10.03C404.77,222.87,408.41,220.68,400.73,235.89z"/>
</g>
<g id="Calque_14">
	<path class="st7" d="M324.22,390.27c1.64-4.92-1.47-10.47-5.96-13.07c-4.49-2.6-9.95-2.84-15.12-2.44
		c-5.17,0.4-10.34,1.37-15.51,0.92c-6.91-0.59-13.35-3.67-20.13-5.14c-6.78-1.47-14.8-0.91-19.32,4.36
		c-4.96,5.78-3.4,15.19,1.73,20.82c5.13,5.63,12.83,8.16,20.34,9.44c13.74,2.35,28.05,1.25,41.26-3.18
		C317.56,399.94,322.4,395.73,324.22,390.27z"/>
	<path class="st7" d="M246.28,387.34c5.99-8.26,17.01-10.36,26.42-6.42c9.41,3.94,15.86,13.46,17.43,23.55"/>
</g>
<g id="Calque_15">
	<path class="st7" d="M119.02,241.55c0.02,6.54,0.03,13.13-1.26,19.54c-1.28,6.41-3.96,12.71-8.64,17.28
		c4.51,0.69,8.26,4.03,10.57,7.95c2.32,3.93,3.42,8.43,4.49,12.86c-2.58-11.56,0.3-24.21,7.63-33.51
		C123.88,259.5,119.52,249.05,119.02,241.55z"/>
	<path class="st7" d="M419.03,596.28c-1.14,0.85-2.29,1.7-3.43,2.55"/>
	<path class="st7" d="M445.35,157.29c2.09,14.61-1.37,29.94-9.53,42.24c4.08-1.41,8.71,0.97,11.19,4.51s3.26,7.96,3.81,12.24
		c-1.04-10.77,1-21.82,5.82-31.51C451.2,175.6,447.27,165.54,445.35,157.29z"/>
	<path class="st7" d="M496.71,459.99c-2.56,8.23-6.95,15.89-12.76,22.26c4.19,1.04,7.08,5.12,8.01,9.34s0.28,8.61-0.38,12.88
		c0.31-9.26,4.65-18.31,11.68-24.34C497.92,475.37,495.69,467.4,496.71,459.99z"/>
	<path class="st7" d="M151.34,510.32c1.23,10.09-2.62,20.68-10.06,27.61c7.28,2.28,12.76,9.4,13.1,17.02
		c-1.97-9.81,0.14-20.37,5.73-28.67C154.12,522.54,150.84,514.89,151.34,510.32z"/>
</g>
<g id="Calque_16">
	<path class="st19" d="M494.3,331.51c2.4-3.44,6.24-5.84,10.39-6.48c1.61-0.25,3.39-0.2,4.67,0.79c1.91,1.48,1.88,4.54,0.59,6.58
		s-3.49,3.3-5.61,4.46"/>
	<path class="st20" d="M141.01,386.28c-6.36,2.34-11.58,7.58-13.9,13.95c-1,2.74-1.36,6.14,0.59,8.31c1.94,2.15,4.96,2.64,7.51,1.28
		c2.55-1.37,2.35-1.32,4.07-3.65"/>
	<path class="st21" d="M285.01,299.13c3.11,5.63,5.59,11.59,7.4,17.76"/>
	<path class="st21" d="M331.96,294.01c-1.46,5.1-2.25,10.4-2.35,15.7"/>
</g>
</svg>
